<svg width="212" height="21" viewBox="0 0 212 21" fill="none" xmlns="http://www.w3.org/2000/svg">
<path d="M16.6997 0.269397C16.6697 0.269311 16.6401 0.276452 16.6135 0.290214C16.5869 0.303975 16.564 0.323952 16.5467 0.348452L10.0238 9.59194C10.0065 9.61641 9.9837 9.63638 9.95716 9.65016C9.93061 9.66395 9.90114 9.67114 9.87123 9.67114C9.84131 9.67114 9.81184 9.66395 9.78529 9.65016C9.75875 9.63638 9.73591 9.61641 9.7187 9.59194L3.11842 0.344156C3.10109 0.319985 3.07826 0.300285 3.05181 0.286688C3.02537 0.27309 2.99606 0.265985 2.96632 0.265959H1.58113C1.55116 0.266045 1.52161 0.258904 1.49498 0.245143C1.46836 0.231381 1.44544 0.211404 1.42817 0.186904C1.42217 0.178052 1.41348 0.171366 1.40338 0.167835C1.39329 0.164303 1.38232 0.164113 1.37211 0.167292C1.3619 0.170471 1.35298 0.176851 1.34667 0.185489C1.34037 0.194128 1.33701 0.204565 1.33709 0.215261C1.33709 0.228707 1.33175 0.241602 1.32224 0.25111C1.31273 0.260618 1.29984 0.265959 1.28639 0.265959H0.187345C0.162486 0.266071 0.137895 0.271106 0.114993 0.280775C0.0920914 0.290444 0.0713321 0.304554 0.0539144 0.322291C0.0364968 0.340029 0.022766 0.361041 0.0135152 0.384115C0.0042644 0.407189 -0.000323102 0.431867 1.76848e-05 0.456724V20.6142C0.000243714 20.6638 0.0200525 20.7113 0.0551343 20.7464C0.0902162 20.7815 0.137732 20.8013 0.187345 20.8015H3.02303C3.07265 20.8013 3.12016 20.7815 3.15525 20.7464C3.19033 20.7113 3.21014 20.6638 3.21036 20.6142V6.56291C3.20873 6.52193 3.22065 6.48156 3.24427 6.44804C3.2679 6.41452 3.30192 6.38973 3.34106 6.37749C3.38021 6.36526 3.42229 6.36628 3.4608 6.38038C3.49931 6.39448 3.53209 6.42088 3.55408 6.4555L9.1086 14.3447C9.12582 14.3693 9.1487 14.3894 9.17532 14.4033C9.20194 14.4173 9.23152 14.4246 9.26155 14.4246H10.4878C10.5179 14.4246 10.5476 14.4172 10.5742 14.4032C10.6009 14.3891 10.6237 14.3687 10.6407 14.3439L16.087 6.54057C16.1093 6.5066 16.1422 6.48084 16.1805 6.46718C16.2188 6.45351 16.2605 6.45268 16.2993 6.46481C16.3381 6.47694 16.3719 6.50137 16.3956 6.53442C16.4193 6.56746 16.4316 6.60732 16.4307 6.64798V20.6142C16.4307 20.6388 16.4355 20.6631 16.445 20.6859C16.4544 20.7086 16.4682 20.7292 16.4856 20.7466C16.503 20.764 16.5236 20.7778 16.5463 20.7873C16.5691 20.7967 16.5934 20.8015 16.618 20.8015H19.4262C19.4508 20.8015 19.4752 20.7967 19.4979 20.7873C19.5206 20.7778 19.5413 20.764 19.5587 20.7466C19.5761 20.7292 19.5899 20.7086 19.5993 20.6859C19.6087 20.6631 19.6135 20.6388 19.6135 20.6142V0.456724C19.6135 0.407042 19.5938 0.359394 19.5587 0.324264C19.5235 0.289133 19.4759 0.269397 19.4262 0.269397H16.6997Z" fill="#16191E"/>
<path d="M56.0264 13.9573C55.8442 13.6705 55.7816 13.3237 55.8519 12.9912C55.9223 12.6588 56.12 12.3671 56.4028 12.1786C58.0543 11.089 58.8887 9.29906 58.8887 6.83201C58.8887 4.66915 58.1841 2.99953 56.7946 1.87127C55.4842 0.808312 53.5877 0.269531 51.155 0.269531H45.2258C44.8806 0.270214 44.5497 0.407854 44.3058 0.652245C44.0619 0.896635 43.9249 1.22781 43.9249 1.57309V19.4981C43.9249 19.6693 43.9586 19.8388 44.0241 19.9969C44.0896 20.1551 44.1856 20.2988 44.3067 20.4198C44.4277 20.5409 44.5714 20.6369 44.7296 20.7024C44.8877 20.7679 45.0572 20.8016 45.2284 20.8016H45.8299C46.1757 20.8016 46.5072 20.6643 46.7517 20.4198C46.9962 20.1754 47.1335 19.8438 47.1335 19.4981V14.7255C47.1335 14.3798 47.2708 14.0482 47.5153 13.8038C47.7598 13.5593 48.0913 13.422 48.437 13.422H51.161C51.3811 13.4219 51.5977 13.4776 51.7905 13.5838C51.9832 13.6901 52.146 13.8434 52.2635 14.0295L56.1587 20.1941C56.2762 20.3801 56.4388 20.5333 56.6314 20.6396C56.824 20.7458 57.0404 20.8015 57.2603 20.8016H57.9813C58.2145 20.8017 58.4435 20.7392 58.6443 20.6206C58.8452 20.502 59.0105 20.3317 59.1231 20.1275C59.2357 19.9232 59.2915 19.6925 59.2846 19.4594C59.2777 19.2263 59.2083 18.9993 59.0838 18.8021L56.0264 13.9573ZM47.1369 4.67688C47.1364 4.50548 47.1696 4.33565 47.2348 4.17711C47.2999 4.01857 47.3957 3.87443 47.5166 3.75296C47.6375 3.63148 47.7812 3.53504 47.9395 3.46916C48.0977 3.40328 48.2674 3.36925 48.4388 3.36903H51.155C52.7189 3.36903 53.8902 3.65689 54.6352 4.22833C55.3544 4.77656 55.7041 5.62039 55.7041 6.80623C55.7041 8.08486 55.3682 8.96994 54.673 9.5113C53.9512 10.0776 52.7989 10.3526 51.1499 10.3526H48.4388C48.093 10.3526 47.7615 10.2152 47.517 9.97075C47.2725 9.72629 47.1352 9.39472 47.1352 9.049L47.1369 4.67688Z" fill="#16191E"/>
<path d="M76.4004 3.31234V0.41048C76.4005 0.391942 76.3969 0.373565 76.3899 0.356416C76.3828 0.339266 76.3725 0.323686 76.3593 0.310577C76.3462 0.297468 76.3307 0.287092 76.3135 0.28005C76.2964 0.273008 76.278 0.269441 76.2594 0.269555H62.4419C62.4232 0.269211 62.4047 0.272608 62.3873 0.279547C62.37 0.286485 62.3542 0.296825 62.3409 0.309957C62.3276 0.323089 62.3171 0.338748 62.3099 0.356012C62.3028 0.373276 62.2991 0.391795 62.2993 0.41048V20.6607C62.2993 20.6981 62.3141 20.734 62.3405 20.7604C62.367 20.7868 62.4028 20.8017 62.4402 20.8017H76.2577C76.2951 20.8017 76.3309 20.7868 76.3574 20.7604C76.3838 20.734 76.3987 20.6981 76.3987 20.6607V17.7314C76.3988 17.7129 76.3952 17.6945 76.3882 17.6773C76.3811 17.6602 76.3707 17.6446 76.3576 17.6315C76.3445 17.6184 76.3289 17.608 76.3118 17.601C76.2946 17.5939 76.2763 17.5903 76.2577 17.5905H65.6247C65.5874 17.5905 65.5515 17.5756 65.5251 17.5492C65.4987 17.5228 65.4838 17.4869 65.4838 17.4495V11.9749C65.4841 11.9377 65.499 11.9021 65.5254 11.8758C65.5518 11.8496 65.5875 11.8349 65.6247 11.8349H75.8977C75.935 11.8346 75.9707 11.8197 75.9971 11.7933C76.0235 11.767 76.0384 11.7313 76.0386 11.6939V8.79209C76.0384 8.75479 76.0235 8.71907 75.9971 8.69269C75.9707 8.66631 75.935 8.65139 75.8977 8.65117H65.6247C65.606 8.65117 65.5875 8.64744 65.5702 8.6402C65.5529 8.63296 65.5373 8.62234 65.5242 8.60898C65.5111 8.59562 65.5007 8.57978 65.4938 8.56239C65.4869 8.54499 65.4835 8.52639 65.4838 8.50766V3.59333C65.484 3.55602 65.499 3.52031 65.5254 3.49393C65.5517 3.46755 65.5874 3.45263 65.6247 3.4524H76.2594C76.2779 3.45252 76.2962 3.44898 76.3133 3.44199C76.3304 3.435 76.3459 3.4247 76.359 3.41168C76.3721 3.39867 76.3825 3.38319 76.3896 3.36614C76.3967 3.34909 76.4004 3.3308 76.4004 3.31234Z" fill="#16191E"/>
<path d="M93.143 0.410457V14.7427C93.1423 14.7715 93.1329 14.7994 93.1159 14.8227C93.0989 14.846 93.0751 14.8634 93.0479 14.8728C93.0206 14.8822 92.9912 14.883 92.9635 14.8751C92.9358 14.8672 92.9111 14.851 92.8929 14.8286L81.0896 0.321089C81.0763 0.30495 81.0597 0.291952 81.0408 0.283036C81.0219 0.274119 81.0013 0.269507 80.9804 0.269531H78.4962C78.4777 0.269531 78.4595 0.273182 78.4424 0.280275C78.4254 0.287367 78.4099 0.297762 78.3969 0.310859C78.3838 0.323956 78.3735 0.339499 78.3666 0.356592C78.3596 0.373685 78.356 0.391991 78.3561 0.410457V20.6607C78.3561 20.6979 78.3709 20.7337 78.3971 20.7601C78.4234 20.7865 78.459 20.8014 78.4962 20.8016H81.3981C81.4354 20.8016 81.4713 20.7868 81.4977 20.7604C81.5241 20.7339 81.539 20.6981 81.539 20.6607V6.3276C81.5394 6.29876 81.5486 6.27075 81.5655 6.24739C81.5824 6.22402 81.6061 6.20644 81.6334 6.19704C81.6606 6.18764 81.6901 6.18688 81.7178 6.19487C81.7455 6.20285 81.7701 6.2192 81.7882 6.24167L93.5915 20.7518C93.6047 20.7681 93.6213 20.7812 93.6402 20.7902C93.6591 20.7993 93.6797 20.8041 93.7007 20.8042H96.2133C96.2505 20.804 96.2861 20.789 96.3124 20.7626C96.3386 20.7362 96.3533 20.7005 96.3533 20.6633V0.410457C96.3534 0.391991 96.3499 0.373685 96.3429 0.356592C96.3359 0.339499 96.3256 0.323956 96.3126 0.310859C96.2996 0.297762 96.2841 0.287367 96.2671 0.280275C96.25 0.273182 96.2317 0.269531 96.2133 0.269531H93.283C93.2646 0.269531 93.2463 0.273182 93.2292 0.280275C93.2122 0.287367 93.1967 0.297762 93.1837 0.310859C93.1707 0.323956 93.1604 0.339499 93.1534 0.356592C93.1464 0.373685 93.1429 0.391991 93.143 0.410457Z" fill="#16191E"/>
<path d="M112.203 0.108399H105.822C105.794 0.109288 105.766 0.118607 105.744 0.135151C105.721 0.151695 105.703 0.174703 105.694 0.201204L98.3752 20.4515C98.3677 20.4727 98.3653 20.4954 98.3684 20.5178C98.3714 20.5401 98.3798 20.5614 98.3927 20.5798C98.4057 20.5982 98.4229 20.6133 98.4429 20.6237C98.4628 20.6341 98.485 20.6396 98.5076 20.6397H101.569C101.598 20.6396 101.626 20.6307 101.65 20.6141C101.674 20.5975 101.692 20.574 101.702 20.5468L102.944 17.1002C103.17 16.4759 103.54 15.9136 104.024 15.4587C104.508 15.0039 105.092 14.6692 105.729 14.4819L105.958 14.414C106.937 14.1227 107.863 13.8477 108.998 13.8477C110.201 13.8477 111.197 14.1356 112.249 14.4398L112.268 14.4458C112.909 14.6314 113.497 14.9659 113.983 15.422C114.47 15.8781 114.842 16.4428 115.069 17.0701L116.327 20.5503C116.337 20.5775 116.355 20.6011 116.378 20.6177C116.402 20.6343 116.43 20.6432 116.459 20.6431H119.517C119.54 20.6431 119.562 20.6376 119.582 20.6272C119.602 20.6168 119.619 20.6017 119.632 20.5832C119.645 20.5648 119.653 20.5435 119.656 20.5211C119.659 20.4988 119.657 20.4761 119.649 20.4549L112.335 0.201204C112.326 0.173958 112.308 0.150406 112.284 0.133788C112.26 0.117169 112.232 0.1083 112.203 0.108399ZM112.778 11.4288C111.698 11.1083 110.473 10.7457 108.997 10.7457C107.581 10.7457 106.475 11.0774 105.405 11.3987L105.213 11.4563C105.188 11.4638 105.161 11.4642 105.136 11.4575C105.111 11.4508 105.088 11.4372 105.071 11.4183C105.053 11.3994 105.04 11.3759 105.035 11.3504C105.03 11.325 105.032 11.2986 105.041 11.2741L107.56 4.30694C107.668 4.00903 107.865 3.75166 108.125 3.5699C108.385 3.38814 108.694 3.29084 109.011 3.29125C109.328 3.29133 109.638 3.38935 109.897 3.5719C110.156 3.75446 110.353 4.01266 110.46 4.31123L112.952 11.2466C112.961 11.2711 112.963 11.2975 112.958 11.3229C112.952 11.3484 112.94 11.3719 112.923 11.3908C112.905 11.4097 112.882 11.4234 112.857 11.4302C112.832 11.4371 112.805 11.4369 112.781 11.4297L112.778 11.4288Z" fill="#16191E"/>
<path d="M134.63 2.19293C133.307 0.998502 131.434 0.393555 129.062 0.393555H122.66C122.47 0.393555 122.288 0.468969 122.154 0.603207C122.02 0.737445 121.944 0.91951 121.944 1.10935V19.9194C121.944 20.1093 122.02 20.2913 122.154 20.4256C122.288 20.5598 122.47 20.6352 122.66 20.6352H124.008C124.198 20.6352 124.38 20.5598 124.514 20.4256C124.649 20.2913 124.724 20.1093 124.724 19.9194V14.81C124.724 14.716 124.742 14.6229 124.778 14.5361C124.814 14.4493 124.867 14.3704 124.934 14.3039C125 14.2374 125.079 14.1847 125.166 14.1487C125.253 14.1127 125.346 14.0942 125.44 14.0942H129.062C131.503 14.0942 133.4 13.479 134.701 12.2665C135.979 11.0755 136.628 9.37152 136.628 7.20179C136.629 5.1051 135.941 3.37275 134.63 2.19293ZM129.062 11.3986H125.44C125.25 11.3986 125.068 11.3232 124.934 11.189C124.799 11.0547 124.724 10.8727 124.724 10.6828V3.80841C124.724 3.61857 124.799 3.43651 124.934 3.30227C125.068 3.16803 125.25 3.09262 125.44 3.09262H129.062C131.258 3.09262 133.874 3.80068 133.874 7.17687C133.879 10.0169 132.301 11.3986 129.062 11.3986Z" fill="#16191E"/>
<path d="M141.653 1.76929C141.653 1.00949 141.037 0.393555 140.277 0.393555C139.517 0.393555 138.902 1.00949 138.902 1.76929V19.2595C138.902 20.0193 139.517 20.6352 140.277 20.6352C141.037 20.6352 141.653 20.0193 141.653 19.2595V1.76929Z" fill="#16191E"/>
<path d="M161.151 0.393555H159.522C159.411 0.393488 159.302 0.419233 159.203 0.46875C159.104 0.518267 159.017 0.590197 158.951 0.678843L153.808 7.49739C153.741 7.586 153.655 7.6579 153.555 7.7074C153.456 7.75691 153.347 7.78268 153.236 7.78268C153.125 7.78268 153.015 7.75691 152.916 7.7074C152.817 7.6579 152.73 7.586 152.663 7.49739L147.542 0.679702C147.475 0.590782 147.389 0.518616 147.29 0.468942C147.19 0.419268 147.081 0.393455 146.97 0.393555H145.316C145.183 0.393435 145.053 0.430376 144.94 0.500233C144.826 0.57009 144.735 0.6701 144.675 0.789045C144.616 0.907991 144.591 1.04117 144.603 1.17363C144.615 1.3061 144.663 1.43262 144.743 1.539L151.173 10.1122C151.266 10.2362 151.316 10.387 151.316 10.5419C151.316 10.6968 151.266 10.8475 151.173 10.9715L144.772 19.4898C144.693 19.5961 144.644 19.7225 144.632 19.8549C144.62 19.9873 144.645 20.1204 144.704 20.2393C144.764 20.3583 144.855 20.4583 144.968 20.5282C145.081 20.5981 145.212 20.6352 145.345 20.6352H146.977C147.088 20.6352 147.197 20.6094 147.297 20.5598C147.396 20.5103 147.482 20.4385 147.549 20.3499L152.637 13.5881C152.704 13.4997 152.791 13.4279 152.89 13.3785C152.989 13.3291 153.098 13.3034 153.209 13.3034C153.32 13.3034 153.43 13.3291 153.529 13.3785C153.628 13.4279 153.714 13.4997 153.781 13.5881L158.87 20.3499C158.937 20.4386 159.023 20.5105 159.122 20.56C159.222 20.6096 159.331 20.6353 159.442 20.6352H161.075C161.208 20.6352 161.338 20.5982 161.451 20.5284C161.564 20.4586 161.655 20.3587 161.715 20.2399C161.774 20.1211 161.8 19.9881 161.788 19.8558C161.776 19.7235 161.728 19.597 161.648 19.4906L155.274 10.9741C155.181 10.8503 155.13 10.6995 155.13 10.5445C155.13 10.3894 155.181 10.2386 155.274 10.1148L161.72 1.54072C161.8 1.43458 161.849 1.30821 161.862 1.17577C161.874 1.04334 161.849 0.91009 161.79 0.790966C161.731 0.671842 161.64 0.571557 161.527 0.501361C161.414 0.431164 161.284 0.393833 161.151 0.393555Z" fill="#16191E"/>
<path d="M178.584 2.38834V1.06931C178.584 0.879471 178.509 0.697406 178.374 0.563168C178.24 0.42893 178.058 0.353516 177.868 0.353516H165.543C165.353 0.353516 165.171 0.42893 165.037 0.563168C164.903 0.697406 164.828 0.879471 164.828 1.06931V19.8794C164.828 20.0692 164.903 20.2513 165.037 20.3855C165.171 20.5198 165.353 20.5952 165.543 20.5952H177.868C178.058 20.5952 178.24 20.5198 178.374 20.3855C178.509 20.2513 178.584 20.0692 178.584 19.8794V18.5311C178.584 18.3413 178.509 18.1592 178.374 18.025C178.24 17.8908 178.058 17.8153 177.868 17.8153H168.295C168.201 17.8153 168.108 17.7968 168.021 17.7609C167.934 17.7249 167.855 17.6722 167.789 17.6057C167.722 17.5392 167.669 17.4603 167.633 17.3735C167.598 17.2866 167.579 17.1936 167.579 17.0996V12.2711C167.579 12.0813 167.654 11.8992 167.789 11.765C167.923 11.6308 168.105 11.5553 168.295 11.5553H177.503C177.597 11.5553 177.69 11.5368 177.777 11.5008C177.864 11.4648 177.943 11.412 178.009 11.3454C178.076 11.2788 178.129 11.1998 178.165 11.1129C178.201 11.0259 178.219 10.9328 178.219 10.8387V9.51967C178.219 9.32983 178.143 9.14776 178.009 9.01352C177.875 8.87928 177.693 8.80387 177.503 8.80387H168.295C168.201 8.80387 168.108 8.78533 168.021 8.7493C167.934 8.71328 167.855 8.66047 167.788 8.59391C167.722 8.52736 167.669 8.44835 167.633 8.3614C167.597 8.27446 167.579 8.18129 167.579 8.08721V3.82079C167.579 3.63087 167.654 3.44872 167.789 3.31434C167.923 3.17997 168.105 3.10436 168.295 3.10413H177.868C177.962 3.10413 178.055 3.08562 178.142 3.04965C178.229 3.01368 178.308 2.96095 178.374 2.89448C178.441 2.82801 178.494 2.74911 178.53 2.66226C178.566 2.57542 178.584 2.48234 178.584 2.38834Z" fill="#16191E"/>
<path d="M183.561 17.1004V1.06931C183.561 0.879471 183.486 0.697406 183.351 0.563168C183.217 0.42893 183.035 0.353516 182.845 0.353516H181.525C181.336 0.353516 181.154 0.42893 181.019 0.563168C180.885 0.697406 180.81 0.879471 180.81 1.06931V19.8794C180.81 20.0692 180.885 20.2513 181.019 20.3855C181.154 20.5198 181.336 20.5952 181.525 20.5952H193.85C194.04 20.5952 194.222 20.5198 194.356 20.3855C194.491 20.2513 194.566 20.0692 194.566 19.8794V18.5311C194.566 18.3413 194.491 18.1592 194.356 18.025C194.222 17.8908 194.04 17.8153 193.85 17.8153H184.277C184.087 17.8153 183.905 17.7401 183.771 17.606C183.637 17.4719 183.561 17.2901 183.561 17.1004Z" fill="#16191E"/>
<path d="M206.458 9.49709H206.449C206.055 9.36648 204.195 8.61631 203.664 8.39375L203.623 8.37742C202.667 8.02511 200.425 7.19932 200.425 5.48846C200.425 4.92304 200.784 4.33528 201.41 3.87469C202.175 3.31271 203.255 3.00336 204.453 3.00336C206.798 3.00336 208.566 4.4341 208.566 6.33057C208.566 6.43145 208.587 6.53117 208.629 6.62322C208.67 6.71527 208.73 6.79756 208.805 6.86473C208.881 6.93189 208.969 6.9824 209.065 7.01296C209.162 7.04352 209.263 7.05344 209.363 7.04207L210.598 6.90115C210.782 6.88053 210.951 6.78941 211.069 6.64695C211.187 6.50448 211.245 6.32177 211.231 6.13723C211.105 4.41863 210.393 2.95782 209.169 1.9215C207.945 0.885187 206.271 0.334375 204.357 0.364451C202.443 0.394526 200.762 0.911825 199.523 1.86393C198.285 2.81603 197.616 4.09811 197.616 5.48846C197.616 6.74905 198.101 7.8945 199.059 8.88097C199.965 9.81761 201.076 10.3865 201.85 10.6984C202.323 10.8952 203.396 11.2999 204.18 11.5972C204.534 11.7304 204.841 11.8464 205 11.9083L205.285 12.0252C207.304 12.8484 208.733 13.5719 208.733 15.342C208.733 15.9238 208.475 16.4858 207.989 16.9678C207.19 17.7593 205.902 18.2035 204.459 18.1915C202.406 18.1683 200.238 16.4239 199.728 14.3822C199.686 14.2152 199.586 14.0689 199.445 13.9699C199.304 13.871 199.132 13.8261 198.961 13.8434L197.586 13.9844C197.485 13.9946 197.388 14.0262 197.3 14.0769C197.212 14.1276 197.136 14.1963 197.077 14.2785C197.018 14.3606 196.977 14.4544 196.957 14.5536C196.937 14.6528 196.938 14.7552 196.96 14.854C197.752 18.3573 200.973 20.9997 204.452 20.9997C206.443 20.9997 208.257 20.4076 209.561 19.3335C210.864 18.2594 211.569 16.8192 211.569 15.2578C211.57 11.6917 208.653 10.2619 206.458 9.49709Z" fill="#16191E"/>
<path d="M23.0292 8.64171C23.2402 8.64182 23.4492 8.60036 23.6441 8.5197C23.8391 8.43904 24.0162 8.32076 24.1654 8.17162C24.3147 8.02247 24.433 7.84539 24.5138 7.65048C24.5946 7.45557 24.6361 7.24666 24.6361 7.03568V4.88055C24.636 4.66957 24.6775 4.46064 24.7581 4.26569C24.8388 4.07074 24.9571 3.89359 25.1062 3.74436C25.2554 3.59514 25.4325 3.47676 25.6274 3.396C25.8223 3.31523 26.0312 3.27366 26.2422 3.27366H28.503C28.7171 3.27862 28.93 3.24072 29.1292 3.16222C29.3285 3.08371 29.51 2.96617 29.6632 2.81651C29.8163 2.66684 29.938 2.48807 30.0211 2.29071C30.1042 2.09334 30.147 1.88135 30.147 1.6672C30.147 1.45306 30.1042 1.24107 30.0211 1.0437C29.938 0.84633 29.8163 0.667561 29.6632 0.517897C29.51 0.368233 29.3285 0.250694 29.1292 0.172187C28.93 0.0936802 28.7171 0.0557893 28.503 0.0607411H24.6361V0.0478516H23.0292C22.6033 0.0478516 22.1948 0.217058 21.8936 0.518247C21.5924 0.819437 21.4232 1.22794 21.4232 1.65388V7.03568C21.4232 7.46162 21.5924 7.87012 21.8936 8.17131C22.1948 8.4725 22.6033 8.64171 23.0292 8.64171Z" fill="#F0002F"/>
<path d="M28.6147 17.5711H26.3479C25.9217 17.5711 25.513 17.4018 25.2116 17.1005C24.9103 16.7991 24.741 16.3904 24.741 15.9642V13.8091C24.746 13.595 24.7081 13.3821 24.6296 13.1828C24.551 12.9836 24.4335 12.8021 24.2838 12.6489C24.1342 12.4957 23.9554 12.374 23.758 12.2909C23.5607 12.2078 23.3487 12.165 23.1345 12.165C22.9204 12.165 22.7084 12.2078 22.511 12.2909C22.3137 12.374 22.1349 12.4957 21.9852 12.6489C21.8356 12.8021 21.718 12.9836 21.6395 13.1828C21.561 13.3821 21.5231 13.595 21.5281 13.8091V19.1909C21.5285 19.6167 21.6981 20.0249 21.9994 20.3257C22.3007 20.6266 22.7092 20.7954 23.135 20.7952H24.741V20.7823H28.6079C29.0275 20.7726 29.4266 20.5991 29.72 20.2989C30.0133 19.9987 30.1776 19.5956 30.1776 19.1758C30.1776 18.7561 30.0133 18.353 29.72 18.0528C29.4266 17.7526 29.0275 17.5791 28.6079 17.5694L28.6147 17.5711Z" fill="#F0002F"/>
<path d="M40.5048 0.000429679H35.123C34.909 -0.00452211 34.696 0.0333688 34.4968 0.111876C34.2976 0.190383 34.116 0.307922 33.9629 0.457586C33.8097 0.607249 33.688 0.786019 33.6049 0.983388C33.5218 1.18076 33.479 1.39274 33.479 1.60689C33.479 1.82104 33.5218 2.03302 33.6049 2.23039C33.688 2.42776 33.8097 2.60653 33.9629 2.7562C34.116 2.90586 34.2976 3.0234 34.4968 3.10191C34.696 3.18041 34.909 3.2183 35.123 3.21335H37.2782C37.4892 3.21324 37.6981 3.2547 37.893 3.33536C38.088 3.41602 38.2651 3.5343 38.4144 3.68344C38.5636 3.83259 38.682 4.00967 38.7627 4.20458C38.8435 4.39949 38.8851 4.6084 38.8851 4.81938V7.08192C38.8801 7.29601 38.918 7.50893 38.9965 7.70817C39.075 7.9074 39.1926 8.08894 39.3422 8.24211C39.4919 8.39527 39.6707 8.51698 39.868 8.60007C40.0654 8.68316 40.2774 8.72597 40.4915 8.72597C40.7057 8.72597 40.9177 8.68316 41.115 8.60007C41.3124 8.51698 41.4912 8.39527 41.6408 8.24211C41.7905 8.08894 41.908 7.9074 41.9865 7.70817C42.065 7.50893 42.1029 7.29601 42.098 7.08192V3.21507H42.1109V1.60646C42.1109 1.18052 41.9417 0.772015 41.6405 0.470825C41.3393 0.169636 40.9308 0.000429679 40.5048 0.000429679Z" fill="#F0002F"/>
<path d="M42.098 13.7621C42.0883 13.3425 41.9148 12.9433 41.6146 12.65C41.3143 12.3566 40.9113 12.1924 40.4915 12.1924C40.0718 12.1924 39.6687 12.3566 39.3685 12.65C39.0683 12.9433 38.8948 13.3425 38.8851 13.7621V16.0247C38.8851 16.4508 38.7158 16.8595 38.4144 17.1609C38.1131 17.4622 37.7043 17.6315 37.2782 17.6315H35.123C34.909 17.6266 34.696 17.6645 34.4968 17.743C34.2976 17.8215 34.116 17.939 33.9629 18.0887C33.8097 18.2384 33.688 18.4171 33.6049 18.6145C33.5218 18.8119 33.479 19.0239 33.479 19.238C33.479 19.4522 33.5218 19.6641 33.6049 19.8615C33.688 20.0589 33.8097 20.2376 33.9629 20.3873C34.116 20.537 34.2976 20.6545 34.4968 20.733C34.696 20.8115 34.909 20.8494 35.123 20.8445H40.5048C40.7158 20.8445 40.9247 20.8029 41.1196 20.7221C41.3146 20.6414 41.4916 20.523 41.6408 20.3738C41.7899 20.2245 41.9082 20.0474 41.9889 19.8524C42.0695 19.6575 42.111 19.4486 42.1109 19.2376V17.6315H42.098V13.7621Z" fill="#F0002F"/>
<path d="M31.8629 14.8529C34.2433 14.8529 36.1731 12.9232 36.1731 10.5427C36.1731 8.16219 34.2433 6.23242 31.8629 6.23242C29.4824 6.23242 27.5526 8.16219 27.5526 10.5427C27.5526 12.9232 29.4824 14.8529 31.8629 14.8529Z" fill="#F0002F"/>
</svg>
