<svg width="182" height="182" viewBox="0 0 182 182" fill="none" xmlns="http://www.w3.org/2000/svg">
<path d="M46.5522 65.4062H135.448C141.761 65.4063 147.815 67.914 152.279 72.3778C156.742 76.8415 159.25 82.8957 159.25 89.2084V151.06C159.25 153.232 158.387 155.315 156.851 156.851C155.315 158.387 153.232 159.25 151.06 159.25H30.94C29.8645 159.25 28.7995 159.038 27.8058 158.627C26.8122 158.215 25.9093 157.612 25.1488 156.851C23.6129 155.315 22.75 153.232 22.75 151.06V89.2084C22.75 82.8957 25.2577 76.8415 29.7215 72.3778C34.1853 67.914 40.2395 65.4063 46.5522 65.4062Z" fill="#C0C1C5"/>
<path d="M159.249 151.06V83.5494C159.242 78.7349 157.324 74.1202 153.917 70.7185C150.51 67.3168 145.892 65.4062 141.078 65.4063H91.682C84.7716 84.5447 78.5723 103.598 78.5723 105.759V117.532C78.5752 118.822 78.9153 120.088 79.5588 121.205C80.2023 122.323 81.1269 123.252 82.2407 123.902L136.926 155.468C141.252 157.954 146.155 159.258 151.145 159.25C153.302 159.228 155.363 158.355 156.881 156.821C158.398 155.288 159.25 153.217 159.249 151.06Z" fill="#D9DADC"/>
<path d="M159.25 84.7995C159.252 79.9351 157.974 75.1558 155.543 70.9425C153.112 66.7292 149.614 63.2304 145.401 60.7982L93.8438 31.0242C92.9791 30.525 91.9984 30.2622 91 30.2622C90.0016 30.2622 89.0209 30.525 88.1563 31.0242L36.5991 60.7982C32.3864 63.2304 28.8885 66.7292 26.4574 70.9425C24.0262 75.1558 22.7476 79.9351 22.75 84.7995C22.75 84.7995 22.75 84.7995 22.75 84.9701C22.75 85.1408 22.75 85.3114 22.75 85.3114C22.7493 86.5977 23.0881 87.8615 23.7322 88.975C24.3764 90.0885 25.303 91.0123 26.4184 91.6529L88.1563 127.37C89.0209 127.87 90.0016 128.132 91 128.132C91.9984 128.132 92.9791 127.87 93.8438 127.37L155.582 91.7098C156.705 91.0644 157.637 90.1316 158.282 89.0073C158.927 87.8829 159.261 86.6074 159.25 85.3114C159.25 85.1692 159.25 85.0554 159.25 84.9132C159.25 84.7711 159.25 84.8564 159.25 84.7995Z" fill="#780018"/>
<path d="M136.5 81.559C136.5 80.6814 136.327 79.8124 135.991 79.0016C135.655 78.1908 135.163 77.4541 134.543 76.8335C133.922 76.213 133.185 75.7207 132.375 75.3849C131.564 75.049 130.695 74.8762 129.817 74.8762H52.2113C51.3313 74.8724 50.4592 75.0425 49.6451 75.3767C48.831 75.7108 48.091 76.2025 47.4674 76.8234C46.8438 77.4444 46.349 78.1823 46.0114 78.995C45.6738 79.8076 45.5 80.679 45.5 81.559V102.745L88.1562 127.372C89.0209 127.871 90.0016 128.134 91 128.134C91.9984 128.134 92.9791 127.871 93.8438 127.372L136.5 102.745V81.559Z" fill="white"/>
</svg>
