<svg width="16" height="16" viewBox="0 0 16 16" fill="none" xmlns="http://www.w3.org/2000/svg">
<path fill-rule="evenodd" clip-rule="evenodd" d="M0.8 10C1.24183 10 1.6 10.3358 1.6 10.75V13.75C1.6 13.9489 1.68429 14.1397 1.83431 14.2803C1.98434 14.421 2.18783 14.5 2.4 14.5H13.6C13.8122 14.5 14.0157 14.421 14.1657 14.2803C14.3157 14.1397 14.4 13.9489 14.4 13.75V10.75C14.4 10.3358 14.7582 10 15.2 10C15.6418 10 16 10.3358 16 10.75V13.75C16 14.3467 15.7471 14.919 15.2971 15.341C14.847 15.7629 14.2365 16 13.6 16H2.4C1.76348 16 1.15303 15.7629 0.702944 15.341C0.252856 14.919 0 14.3467 0 13.75V10.75C0 10.3358 0.358172 10 0.8 10Z" fill="#62656E"/>
<path fill-rule="evenodd" clip-rule="evenodd" d="M3.24408 4.79079C3.56951 5.06974 4.09715 5.06974 4.42259 4.79079L8 1.72444L11.5774 4.79079C11.9028 5.06974 12.4305 5.06974 12.7559 4.79079C13.0814 4.51184 13.0814 4.05958 12.7559 3.78064L8.58926 0.209209C8.26382 -0.0697365 7.73618 -0.0697365 7.41074 0.209209L3.24408 3.78064C2.91864 4.05958 2.91864 4.51184 3.24408 4.79079Z" fill="#62656E"/>
<path fill-rule="evenodd" clip-rule="evenodd" d="M8 11C8.55228 11 9 10.6482 9 10.2143V0.785714C9 0.351776 8.55228 0 8 0C7.44772 0 7 0.351776 7 0.785714V10.2143C7 10.6482 7.44772 11 8 11Z" fill="#62656E"/>
</svg>
